<?xml version="1.0" encoding="UTF-8"?>
<svg id="Layer_1" data-name="Layer 1" xmlns="http://www.w3.org/2000/svg" xmlns:xlink="http://www.w3.org/1999/xlink" viewBox="0 0 338.08 334.75">
  <defs>
    <style>
      .cls-1 {
        mask: url(#mask-1);
      }

      .cls-2 {
        fill: #fff;
      }

      .cls-3 {
        mask: url(#mask);
      }

      .cls-4 {
        fill: #2b2300;
      }

      .cls-5 {
        fill: #ffce00;
      }
    </style>
    <mask id="mask" x="1.15" y="0" width="335.77" height="345.88" maskUnits="userSpaceOnUse">
      <rect class="cls-2" x="1.15" width="335.77" height="335.77" rx="35.58" ry="35.58"/>
    </mask>
    <mask id="mask-1" x="1.15" y="0" width="335.77" height="345.88" maskUnits="userSpaceOnUse">
      <rect class="cls-2" x="1.15" width="335.77" height="335.77"/>
    </mask>
  </defs>
  <g class="cls-3">
    <g>
      <rect class="cls-5" x="1.15" width="335.77" height="335.77" rx="35.58" ry="35.58"/>
      <g class="cls-1">
        <g>
          <path class="cls-4" d="M107.83,120.22c-1.26-6.45-8.59-12.11-13.37-16.15-4.25-3.59-10.76-9.14-16.66-9.3-6.69-.18-7.27,8.02-7.55,12.92-.42,7.4,1.42,14.6,4.67,21.2,2.56,5.2,10.32.64,7.77-4.54-2.07-4.2-3.3-8.7-3.47-13.39-.09-2.37.34-4.58.47-6.92.88-2.25.23-2.29-1.96-.11.89.36,1.77.77,2.61,1.24,3.77,1.97,7.1,4.57,10.22,7.45,2.72,2.51,7.87,6.27,8.61,10,1.11,5.68,9.79,3.27,8.68-2.39h0Z"/>
          <path class="cls-4" d="M104.26,122.97c10.4-8.85,23.4-13.58,36.69-16.03,7.9-1.46,15.94-2.04,23.96-2.39,6.93-.3,15.72-1.83,22.28.75,2.28.9,4.92-1,5.54-3.14,1.99-6.96,7.07-16.86,14.28-19.82.52-.15.8-.47.84-.99.55.75.92,1.58,1.09,2.49.72,2.31.83,4.95,1.03,7.35.42,4.91.37,9.82.02,14.73-.41,5.78,8.59,5.75,9,0,.57-8.02,2.63-34.1-11-33.45-5.71.27-11.6,6.34-15.04,10.42-4.18,4.96-7.12,10.65-8.9,16.88l5.54-3.14c-7.48-2.95-16.82-1.42-24.68-1.08-8.82.38-17.66,1.11-26.35,2.71-14.9,2.74-29.06,8.47-40.67,18.34-4.42,3.76,1.97,10.1,6.36,6.36h0Z"/>
          <path class="cls-4" d="M74.6,125.03c-13.41,46.88,1.9,97.95,39.19,129.41,4.4,3.71,10.8-2.62,6.36-6.36-34.95-29.48-49.47-76.61-36.88-120.65,1.6-5.58-7.09-7.96-8.68-2.39h0Z"/>
          <path class="cls-4" d="M210.19,113.05c12.1,12.62,13.4,31.48,19.81,47.03.85,2.07,3.05,4.11,5.54,3.14,12.72-4.93,31.69-1.1,36.38,13.09,4.33,13.13-2.4,25.91-11.8,34.89-20.71,19.79-51,27.22-78.41,31.77-17.97,2.98-36.33,5.77-54.59,5.17-5.79-.19-5.79,8.81,0,9,18.76.61,37.67-2.33,56.14-5.36,16.87-2.77,33.65-6.59,49.46-13.21,25.25-10.57,60.54-35.59,46.72-67.68-7.21-16.74-30.07-22.65-46.29-16.36l5.54,3.14c-7.09-17.21-8.71-37.01-22.13-51-4.02-4.19-10.37,2.18-6.36,6.36h0Z"/>
          <path class="cls-4" d="M115.49,255.73c5.01.93,10.02,1.32,15.11.98,5.75-.38,5.79-9.38,0-9-4.27.28-8.51.12-12.72-.66-5.66-1.05-8.09,7.62-2.39,8.68h0Z"/>
          <path class="cls-4" d="M137.18,154.94c5.79,0,5.8-9,0-9s-5.8,9,0,9h0Z"/>
          <path class="cls-4" d="M182.86,142.94c5.79,0,5.8-9,0-9s-5.8,9,0,9h0Z"/>
          <path class="cls-4" d="M224.44,163.8c9.17-10.43,15.37-23.01,24.45-33.49,3.78-4.36-2.56-10.75-6.36-6.36-9.09,10.49-15.3,23.08-24.45,33.49-3.81,4.33,2.53,10.72,6.36,6.36h0Z"/>
          <path class="cls-4" d="M247.81,175.91c11.35-11.37,23.62-21.69,36.82-30.85,4.72-3.28.23-11.09-4.54-7.77-13.82,9.6-26.75,20.35-38.64,32.26-4.1,4.1,2.26,10.47,6.36,6.36h0Z"/>
          <path class="cls-4" d="M99.4,193.7c-14.04,5.71-30.13,5.1-44.87,8.21-5.66,1.19-3.27,9.87,2.39,8.68,14.75-3.11,30.8-2.48,44.87-8.21,5.29-2.15,2.98-10.86-2.39-8.68h0Z"/>
          <path class="cls-4" d="M106.07,208.15c-7.97,6.59-16.33,12.64-25.05,18.19-4.87,3.1-.36,10.9,4.54,7.77,9.37-5.97,18.32-12.52,26.88-19.6,4.47-3.7-1.93-10.03-6.36-6.36h0Z"/>
          <path class="cls-4" d="M160.57,154.22c-.72,2.48-1.84,5.14-1.99,7.74-.11,1.89.93,3.82,2.53,4.8,1.91,1.16,3.98.88,5.9-.02,2.29-1.08,5.13-2.89,6.23-5.22,1.52-3.23-.94-6.12-3.25-8.14-1.83-1.6-4.57-1.8-6.36,0-1.63,1.63-1.84,4.76,0,6.36.41.36.8.72,1.17,1.12.63.68.27.59.11-.18v-2.39l-.12.3,1.16-1.99c-.64.68-.82.79-1.4,1.18-.33.22-.68.44-1.03.64l-.42.23c-.77.37-.56.33.64-.12l2.27.61.36.28,1.16,1.99c-.15,1.48-.13,1.82.04,1.03l.15-.53c.17-.62.36-1.24.54-1.86l1-3.45c.66-2.26-.8-5-3.14-5.54s-4.83.72-5.54,3.14h0Z"/>
          <path class="cls-4" d="M107.86,246.17c-9.22,12.16-12.64,27.48-15.11,42.25-2.65,15.9-5.26,34.37,1.39,49.62,2.31,5.3,10.07.72,7.77-4.54-2.89-6.62-2.91-14.5-2.69-21.58.24-7.77,1.21-15.5,2.56-23.16,2.36-13.39,5.47-27,13.85-38.05,3.5-4.61-4.31-9.1-7.77-4.54h0Z"/>
          <path class="cls-4" d="M229.01,243.74c7.08,2.16,9.49,14.04,11.08,20.33,2.22,8.77,3.64,17.76,4.75,26.73,2.09,16.83,3.19,33.79,3.81,50.73.21,5.77,9.21,5.8,9,0-.71-19.21-2.04-38.43-4.7-57.47-1.31-9.36-2.9-18.79-5.7-27.84-2.64-8.53-6.56-18.33-15.85-21.16-5.55-1.69-7.93,6.99-2.39,8.68h0Z"/>
          <path class="cls-4" d="M120.67,323.96c.27,2.47.44,4.96,1.57,7.2.52,1.03-.65-1.2-.06.01-.1-.78-.12-.89-.07-.33.02.28.04.56.05.84.04.84.06,1.68.08,2.52.12,5.78,9.12,5.8,9,0-.05-2.42.05-5-1.03-7.23-.55-1.13.15,1.06-.04,0-.21-1.19-.38-1.85-.5-3-.27-2.42-1.88-4.5-4.5-4.5-2.23,0-4.77,2.07-4.5,4.5h0Z"/>
          <path class="cls-4" d="M225.42,327.22c.48,2.08,1.06,4.2,2.16,6.06.19.32.49,1.1-.08-.3.07.18.21.53.17.71.2-1.1-.04-.06-.02.34.04.87.04,1.73.04,2.6,0,5.79,8.99,5.8,9,0,0-2.5.05-5.09-1.07-7.38-.22-.45-.47-.88-.7-1.32-.13-.27-.08-.17.13.3-.1-.28-.2-.56-.29-.85-.26-.83-.46-1.68-.65-2.53-1.29-5.64-9.97-3.25-8.68,2.39h0Z"/>
        </g>
      </g>
    </g>
  </g>
</svg>