<?xml version="1.0" encoding="UTF-8"?>
<svg id="Layer_2" data-name="Layer 2" xmlns="http://www.w3.org/2000/svg" viewBox="0 0 977.96 1360.25">
  <defs>
    <style>
      .cls-1 {
        fill: #ad0000;
      }
    </style>
  </defs>
  <g id="Layer_1-2" data-name="Layer 1">
    <g>
      <path class="cls-1" d="M844.89,303.77v-134.03c-26.3-20.72-55.84-38.54-87.98-53.14v32.47h-78.88v-60.4c-67.54-17.79-142.47-23.26-220.48-14.07,138.69,38.34,203.44,168.41,170.66,255.99-22.07,58.97-88.77,99.81-164.97,108.08-4.73.3-9.42.73-14.11,1.15v148.46h-192.53v-95.37c-122.56,59.87-213.7,163.06-244.64,283.62-61.26,238.67,117.6,528.2,425.12,583.72-6.71-191.29,45.41-309.24,94.5-381.73,136.55-201.63,340.66-185.85,420.89-386.25,3.28-8.19,57.33-149.54-2.68-288.5h-104.91ZM690.6,446.83h-78.88v-78.88h78.88v78.88ZM961.42,492.02h-53.35v-53.35h53.35v53.35Z"/>
      <rect class="cls-1" x="690.6" width="58.96" height="58.96"/>
      <rect class="cls-1" x="334.08" y="348.43" width="58.96" height="58.96"/>
      <rect class="cls-1" x="878.59" y="190.86" width="58.96" height="58.96"/>
    </g>
  </g>
</svg>