<?xml version="1.0" encoding="UTF-8"?>
<svg id="Layer_2" data-name="Layer 2" xmlns="http://www.w3.org/2000/svg" viewBox="0 0 335.77 335.77">
  <defs>
    <style>
      .cls-1 {
        fill: #3f0000;
      }

      .cls-2 {
        fill: #ad0000;
      }

      .cls-3 {
        opacity: .39;
      }

      .cls-3, .cls-4 {
        fill: #f4f4f4;
      }

      .cls-5 {
        fill: #230000;
      }
    </style>
  </defs>
  <g id="Layer_1-2" data-name="Layer 1">
    <g>
      <rect class="cls-2" width="335.77" height="335.77" rx="35.58" ry="35.58"/>
      <rect class="cls-5" x="180.46" y="95.7" width="97.55" height="213.08" transform="translate(27 431.47) rotate(-90)"/>
      <rect class="cls-4" x="100.85" y="187.53" width="129.92" height="20.65" transform="translate(-32.04 363.65) rotate(-90)"/>
      <rect class="cls-1" x="96.23" y="179.93" width="97.55" height="44.6" transform="translate(-57.24 347.24) rotate(-90)"/>
      <polygon class="cls-1" points="296.63 124.33 296.63 283.3 335.77 268.87 335.77 136.71 296.63 124.33"/>
      <path class="cls-4" d="M165.81,44.5c-26.83,0-48.58,21.75-48.58,48.58s21.75,48.58,48.58,48.58,48.58-21.75,48.58-48.58-21.75-48.58-48.58-48.58ZM165.81,129.27c-19.99,0-36.19-16.2-36.19-36.19s16.2-36.19,36.19-36.19,36.19,16.2,36.19,36.19-16.2,36.19-36.19,36.19Z"/>
      <circle class="cls-3" cx="165.81" cy="93.08" r="38.41"/>
    </g>
  </g>
</svg>