<?xml version="1.0" encoding="UTF-8"?>
<svg id="Layer_2" data-name="Layer 2" xmlns="http://www.w3.org/2000/svg" xmlns:xlink="http://www.w3.org/1999/xlink" viewBox="0 0 335.77 348.76">
  <defs>
    <style>
      .cls-1 {
        fill: #3f0000;
      }

      .cls-2 {
        fill: #fff;
      }

      .cls-3 {
        mask: url(#mask);
      }

      .cls-4 {
        fill: #ad0000;
      }

      .cls-5 {
        fill: #d6d6d6;
      }

      .cls-6 {
        fill: #f4f4f4;
      }

      .cls-7 {
        fill: none;
        stroke: #f4f4f4;
        stroke-miterlimit: 10;
        stroke-width: 6px;
      }
    </style>
    <mask id="mask" x="0" y="0" width="335.77" height="348.76" maskUnits="userSpaceOnUse">
      <rect class="cls-2" width="335.77" height="335.77"/>
    </mask>
  </defs>
  <g id="Layer_1-2" data-name="Layer 1">
    <g>
      <rect class="cls-4" width="335.77" height="335.77" rx="35.58" ry="35.58"/>
      <g class="cls-3">
        <g>
          <rect class="cls-6" x="53.56" y="113.22" width="241.55" height="230.9"/>
          <rect class="cls-1" x="57.18" y="117.54" width="141.42" height="33.03"/>
          <rect class="cls-1" x="205.82" y="117.54" width="82.58" height="33.03"/>
          <path class="cls-5" d="M295.11,165.81h-90.91l.06,2.06c.4,14.03-10.99,25.66-25.28,25.8h0v155.1h116.13v-182.96Z"/>
        </g>
      </g>
      <line class="cls-7" x1="53.56" y1="69.02" x2="295.11" y2="69.02"/>
      <g>
        <line class="cls-7" x1="71.89" y1="56.12" x2="71.89" y2="83.99"/>
        <line class="cls-7" x1="94.8" y1="56.12" x2="94.8" y2="83.99"/>
        <line class="cls-7" x1="117.71" y1="56.12" x2="117.71" y2="83.99"/>
        <line class="cls-7" x1="140.62" y1="56.12" x2="140.62" y2="83.99"/>
        <line class="cls-7" x1="163.53" y1="56.12" x2="163.53" y2="83.99"/>
        <line class="cls-7" x1="186.44" y1="56.12" x2="186.44" y2="83.99"/>
        <line class="cls-7" x1="209.35" y1="56.12" x2="209.35" y2="83.99"/>
        <line class="cls-7" x1="232.26" y1="56.12" x2="232.26" y2="83.99"/>
        <line class="cls-7" x1="255.17" y1="56.12" x2="255.17" y2="83.99"/>
        <line class="cls-7" x1="278.08" y1="56.12" x2="278.08" y2="83.99"/>
      </g>
    </g>
  </g>
</svg>